<svg width="20" height="20" viewBox="0 0 20 20" fill="none" xmlns="http://www.w3.org/2000/svg">
<g id="back_hand">
<path id="Vector" d="M17.7064 5.83333C17.7064 4.68333 16.7731 3.75 15.6231 3.75C15.4814 3.75 15.3398 3.76667 15.2064 3.79167V3.33333C15.2064 2.18333 14.2731 1.25 13.1231 1.25C12.9314 1.25 12.7398 1.275 12.5648 1.325C12.2564 0.55 11.5064 0 10.6231 0C9.59811 0 8.74811 0.741667 8.57311 1.71667C8.43144 1.68333 8.28144 1.66667 8.12311 1.66667C6.97311 1.66667 6.03977 2.6 6.03977 3.75V8.65833C5.75644 8.4 5.40644 8.20833 5.02311 8.10833L4.38144 7.93333C3.68977 7.74167 2.96477 8.00833 2.55644 8.625C2.23977 9.1 2.22311 9.71667 2.43144 10.25L4.56477 15.6083C5.61477 18.2583 8.18144 20 11.0398 20C14.7231 20 17.7064 17.0167 17.7064 13.3333V5.83333ZM16.0398 13.3333C16.0398 16.0917 13.7981 18.3333 11.0398 18.3333C8.86477 18.3333 6.91477 17.0083 6.11477 14.9917L3.94811 9.54167L4.38977 9.65833C4.77311 9.75833 5.08144 10.0417 5.22311 10.4083L6.03977 12.5H7.70644V3.75C7.70644 3.51667 7.88977 3.33333 8.12311 3.33333C8.35644 3.33333 8.53977 3.51667 8.53977 3.75V10H10.2064V2.08333C10.2064 1.85 10.3898 1.66667 10.6231 1.66667C10.8564 1.66667 11.0398 1.85 11.0398 2.08333V10H12.7064V3.33333C12.7064 3.1 12.8898 2.91667 13.1231 2.91667C13.3564 2.91667 13.5398 3.1 13.5398 3.33333V10H15.2064V5.83333C15.2064 5.6 15.3898 5.41667 15.6231 5.41667C15.8564 5.41667 16.0398 5.6 16.0398 5.83333V13.3333Z" fill="#1FB552"/>
</g>
</svg>
