<svg width="20" height="20" viewBox="0 0 20 20" fill="none" xmlns="http://www.w3.org/2000/svg">
<g clip-path="url(#clip0_529_4247)">
<path d="M0.833496 18.3166C0.833496 18.7833 1.2085 19.1583 1.67516 19.1583H12.5002C12.9668 19.1583 13.3418 18.7833 13.3418 18.3166V17.5H0.833496V18.3166ZM7.0835 7.49165C3.9585 7.49165 0.833496 9.16665 0.833496 12.5H13.3335C13.3335 9.16665 10.2085 7.49165 7.0835 7.49165ZM3.01683 10.8333C3.94183 9.54165 5.9085 9.15831 7.0835 9.15831C8.2585 9.15831 10.2252 9.54165 11.1502 10.8333H3.01683ZM0.833496 14.1666H13.3335V15.8333H0.833496V14.1666ZM15.0002 4.16665V0.833313H13.3335V4.16665H9.16683L9.35849 5.83331H17.3252L16.1585 17.5H15.0002V19.1666H16.4335C17.1335 19.1666 17.7085 18.625 17.7918 17.9416L19.1668 4.16665H15.0002Z" fill="#1FB552"/>
</g>
<defs>
<clipPath id="clip0_529_4247">
<rect width="20" height="20" fill="white"/>
</clipPath>
</defs>
</svg>
